<mxfile host="app.diagrams.net" modified="2022-04-23T06:14:43.740Z" agent="5.0 (Windows NT 10.0; Win64; x64) AppleWebKit/537.36 (KHTML, like Gecko) Chrome/100.0.4896.127 Safari/537.36" etag="un2UN6L3QrDFdDbB1L-q" version="17.4.6" type="github">
  <diagram id="0V-rASKqDhq9RLJnRB-x" name="第 1 页">
    <mxGraphModel dx="652" dy="363" grid="1" gridSize="10" guides="1" tooltips="1" connect="1" arrows="1" fold="1" page="1" pageScale="1" pageWidth="827" pageHeight="1169" math="0" shadow="0">
      <root>
        <mxCell id="0" />
        <mxCell id="1" parent="0" />
        <mxCell id="phy2XebtmlrzV4JaS6H--9" value="" style="group" vertex="1" connectable="0" parent="1">
          <mxGeometry x="279" y="140" width="270" height="290" as="geometry" />
        </mxCell>
        <mxCell id="phy2XebtmlrzV4JaS6H--1" value="start" style="ellipse;whiteSpace=wrap;html=1;aspect=fixed;" vertex="1" parent="phy2XebtmlrzV4JaS6H--9">
          <mxGeometry width="70" height="70" as="geometry" />
        </mxCell>
        <mxCell id="phy2XebtmlrzV4JaS6H--2" value="Home" style="rounded=1;whiteSpace=wrap;html=1;" vertex="1" parent="phy2XebtmlrzV4JaS6H--9">
          <mxGeometry x="140" width="100" height="70" as="geometry" />
        </mxCell>
        <mxCell id="phy2XebtmlrzV4JaS6H--4" style="edgeStyle=orthogonalEdgeStyle;rounded=0;orthogonalLoop=1;jettySize=auto;html=1;exitX=1;exitY=0.5;exitDx=0;exitDy=0;entryX=0;entryY=0.5;entryDx=0;entryDy=0;" edge="1" parent="phy2XebtmlrzV4JaS6H--9" source="phy2XebtmlrzV4JaS6H--1" target="phy2XebtmlrzV4JaS6H--2">
          <mxGeometry relative="1" as="geometry" />
        </mxCell>
        <mxCell id="phy2XebtmlrzV4JaS6H--6" style="edgeStyle=orthogonalEdgeStyle;rounded=0;orthogonalLoop=1;jettySize=auto;html=1;exitX=0.75;exitY=0;exitDx=0;exitDy=0;entryX=0.75;entryY=1;entryDx=0;entryDy=0;" edge="1" parent="phy2XebtmlrzV4JaS6H--9" source="phy2XebtmlrzV4JaS6H--3" target="phy2XebtmlrzV4JaS6H--2">
          <mxGeometry relative="1" as="geometry" />
        </mxCell>
        <mxCell id="phy2XebtmlrzV4JaS6H--3" value="File" style="rounded=1;whiteSpace=wrap;html=1;" vertex="1" parent="phy2XebtmlrzV4JaS6H--9">
          <mxGeometry x="140" y="220" width="100" height="70" as="geometry" />
        </mxCell>
        <mxCell id="phy2XebtmlrzV4JaS6H--5" style="edgeStyle=orthogonalEdgeStyle;rounded=0;orthogonalLoop=1;jettySize=auto;html=1;exitX=0.25;exitY=1;exitDx=0;exitDy=0;entryX=0.25;entryY=0;entryDx=0;entryDy=0;" edge="1" parent="phy2XebtmlrzV4JaS6H--9" source="phy2XebtmlrzV4JaS6H--2" target="phy2XebtmlrzV4JaS6H--3">
          <mxGeometry relative="1" as="geometry" />
        </mxCell>
        <mxCell id="phy2XebtmlrzV4JaS6H--7" value="1" style="text;html=1;strokeColor=none;fillColor=none;align=center;verticalAlign=middle;whiteSpace=wrap;rounded=0;" vertex="1" parent="phy2XebtmlrzV4JaS6H--9">
          <mxGeometry x="120" y="130" width="60" height="30" as="geometry" />
        </mxCell>
        <mxCell id="phy2XebtmlrzV4JaS6H--8" value="2" style="text;html=1;strokeColor=none;fillColor=none;align=center;verticalAlign=middle;whiteSpace=wrap;rounded=0;" vertex="1" parent="phy2XebtmlrzV4JaS6H--9">
          <mxGeometry x="201" y="130" width="60" height="30" as="geometry" />
        </mxCell>
        <mxCell id="phy2XebtmlrzV4JaS6H--11" value="&lt;font style=&quot;font-size: 14px&quot;&gt;1 : choose an image from a file&lt;/font&gt;" style="text;html=1;strokeColor=none;fillColor=none;align=center;verticalAlign=middle;whiteSpace=wrap;rounded=0;fontSize=24;" vertex="1" parent="phy2XebtmlrzV4JaS6H--9">
          <mxGeometry x="-150" y="110" width="300" height="30" as="geometry" />
        </mxCell>
        <mxCell id="phy2XebtmlrzV4JaS6H--10" value="&lt;font style=&quot;font-size: 24px&quot;&gt;State Machine Diagram&lt;/font&gt;" style="text;html=1;strokeColor=none;fillColor=none;align=center;verticalAlign=middle;whiteSpace=wrap;rounded=0;" vertex="1" parent="1">
          <mxGeometry x="260" y="450" width="269" height="50" as="geometry" />
        </mxCell>
        <mxCell id="phy2XebtmlrzV4JaS6H--12" value="2 : predict &amp;amp;&amp;amp; return result&amp;nbsp;" style="text;html=1;strokeColor=none;fillColor=none;align=center;verticalAlign=middle;whiteSpace=wrap;rounded=0;fontSize=14;" vertex="1" parent="1">
          <mxGeometry x="170" y="290" width="240" height="30" as="geometry" />
        </mxCell>
      </root>
    </mxGraphModel>
  </diagram>
</mxfile>
